<?xml version="1.0" encoding="UTF-8"?>
<svg version="1.1" xmlns="http://www.w3.org/2000/svg" width="96" height="96">
<path d="M0 0 C1.27875 0.00257813 2.5575 0.00515625 3.875 0.0078125 C5.15375 0.00523437 6.4325 0.00265625 7.75 0 C10.875 0.1328125 10.875 0.1328125 11.875 1.1328125 C11.96351529 3.72640572 11.99025945 6.29320941 11.97265625 8.88671875 C11.9712413 9.66216537 11.96982635 10.437612 11.96836853 11.23655701 C11.96275345 13.72284744 11.95019846 16.2090491 11.9375 18.6953125 C11.93248694 20.37695183 11.9279237 22.05859256 11.92382812 23.74023438 C11.91362832 27.87115579 11.89405605 32.00188432 11.875 36.1328125 C17.155 36.1328125 22.435 36.1328125 27.875 36.1328125 C26.76510703 41.68227737 25.76042305 42.71737194 21.8125 46.5078125 C21.32023926 46.98460449 20.82797852 47.46139648 20.32080078 47.95263672 C16.295677 51.82098839 12.1276184 55.5169498 7.875 59.1328125 C7.545 59.4628125 7.215 59.7928125 6.875 60.1328125 C4.25 60.6328125 4.25 60.6328125 0.875 60.1328125 C-1.04920605 58.61772502 -2.61828347 56.94080124 -4.26953125 55.1328125 C-6.13862256 53.11812881 -8.09804801 51.35331153 -10.1875 49.5703125 C-13.67228317 46.54065695 -17.05322333 43.58856125 -20.125 40.1328125 C-20.125 38.8128125 -20.125 37.4928125 -20.125 36.1328125 C-14.845 36.1328125 -9.565 36.1328125 -4.125 36.1328125 C-4.13660156 33.61785156 -4.14820313 31.10289063 -4.16015625 28.51171875 C-4.16794673 26.0858574 -4.17402354 23.65999743 -4.17993164 21.23413086 C-4.1849719 19.54336934 -4.19180405 17.85261221 -4.20043945 16.16186523 C-4.21251857 13.73680543 -4.21823123 11.31180306 -4.22265625 8.88671875 C-4.22781754 8.12629776 -4.23297882 7.36587677 -4.23829651 6.58241272 C-4.23849238 4.7654868 -4.18697277 2.94868123 -4.125 1.1328125 C-3.125 0.1328125 -3.125 0.1328125 0 0 Z " fill="#FFFFFF" transform="translate(44.125,7.8671875)"/>
<path d="M0 0 C2.54352483 -0.28660203 4.84286964 -0.37857678 7.38720703 -0.34057617 C8.52881287 -0.34123329 8.52881287 -0.34123329 9.69348145 -0.34190369 C12.21518393 -0.33980959 14.73622583 -0.31645001 17.2578125 -0.29296875 C19.00372962 -0.28737499 20.74965144 -0.28310385 22.49557495 -0.28010559 C27.0955704 -0.26863948 31.69528263 -0.23915727 36.29516602 -0.20599365 C40.98710295 -0.17533071 45.67908555 -0.16160835 50.37109375 -0.14648438 C59.58085375 -0.11428913 68.79040334 -0.06307159 78 0 C79.125 2.3125 79.125 2.3125 80 5 C79.34 5.99 78.68 6.98 78 8 C75.45647517 8.28660203 73.15713036 8.37857678 70.61279297 8.34057617 C69.47118713 8.34123329 69.47118713 8.34123329 68.30651855 8.34190369 C65.78481607 8.33980959 63.26377417 8.31645001 60.7421875 8.29296875 C58.99627038 8.28737499 57.25034856 8.28310385 55.50442505 8.28010559 C50.9044296 8.26863948 46.30471737 8.23915727 41.70483398 8.20599365 C37.01289705 8.17533071 32.32091445 8.16160835 27.62890625 8.14648438 C18.41914625 8.11428913 9.20959666 8.06307159 0 8 C-1.125 5.6875 -1.125 5.6875 -2 3 C-1.34 2.01 -0.68 1.02 0 0 Z " fill="#FFFFFF" transform="translate(9,80)"/>
</svg>
